<svg id="Layer_1" enable-background="new 0 0 512 512" height="512" viewBox="0 0 512 512" width="512" xmlns="http://www.w3.org/2000/svg"><path d="m365 188.213s37.493-37.575 37.887-38.087h94.113c8.284 0 15-6.716 15-15v-9.446c0-22.933-11.823-43.147-29.686-54.898 5.128-7.308 8.15-16.196 8.15-25.781 0-24.813-20.187-45-45-45s-45.001 20.187-45.001 45c0 9.586 3.022 18.473 8.15 25.781-17.863 11.751-29.687 31.965-29.687 54.899v6.181l-18.437 18.437c-2.705-2.649-6.404-4.287-10.49-4.287h-188.072c-3.363 0-6.456 1.12-8.958 2.989l-19.897-20.053v-3.267c0-22.934-11.824-43.147-29.686-54.899 5.128-7.308 8.15-16.195 8.15-25.781 0-24.813-20.187-45-45-45s-45 20.187-45 45c0 9.586 3.022 18.474 8.15 25.781-17.862 11.75-29.686 31.964-29.686 54.898v9.446c0 8.284 6.716 15 15 15h96.825l35.102 35.378v178.355l-35.95 35.951c-3.4-21.468-22.032-37.935-44.441-37.935-24.813 0-45 20.187-45 45 0 9.586 3.022 18.473 8.15 25.781-17.863 11.75-29.686 31.964-29.686 54.898v9.446c0 8.284 6.716 15 15 15h103.073c8.284 0 15-6.716 15-15v-9.446c0-18.548-7.741-35.312-20.146-47.267l34.715-34.716c1.934 6.048 7.596 10.429 14.285 10.429h188.073c6.976 0 12.822-4.769 14.5-11.219l34.905 35.189c-12.6 11.974-20.479 28.871-20.479 47.584v9.446c0 8.284 6.716 15 15 15h103.074c8.284 0 15-6.716 15-15v-9.446c0-22.933-11.823-43.147-29.686-54.898 5.128-7.308 8.15-16.196 8.15-25.781 0-24.813-20.187-45-45-45-22.17 0-40.634 16.119-44.319 37.25l-36.145-36.439zm44.358-68.087c.037.001 2.425-8.053 2.699-8.783 3.947-10.519 14.414-18.319 25.213-20.585 2.979-.625 6.015-.758 9.051-.758 17.785 0 32.572 13.08 35.248 30.126-.001 0-72.198 0-72.211 0zm36.106-90.126c8.271 0 15 6.729 15 15s-6.729 15-15 15-15.001-6.729-15.001-15 6.729-15 15.001-15zm-110.464 170.026-24.016-24.016h24.016zm-45.239-2.813 23.953 23.953h-23.953zm-223.224-167.213c8.271 0 15 6.729 15 15s-6.729 15-15 15-15-6.729-15-15 6.728-15 15-15zm-36.106 90.126c.01 0 2.338-7.724 2.574-8.392 3.857-10.94 14.846-18.989 26.003-21.108 2.75-.523 5.592-.626 8.385-.626 17.785 0 32.573 13.08 35.248 30.126 0 0-72.199 0-72.21 0zm36.106 271.748c8.271 0 15 6.729 15 15 0 8.265-6.719 14.989-14.981 15h-.039c-8.263-.011-14.981-6.735-14.981-15 0-8.271 6.729-15 15.001-15zm-36.105 90.126c-.499 0 3.556-10.863 4.079-11.798 2.094-3.746 4.865-7.106 8.139-9.88 16.207-13.727 42.356-10.31 54.273 7.226 2.939 4.324 4.907 9.286 5.718 14.452 0 0-72.193 0-72.209 0zm146.495-96v-209.989h82.833v60.155c0 8.284 6.716 15 15 15h60.24v134.834zm232.431 96c-.529 0 3.684-11.108 4.228-12.062 2.127-3.732 4.931-7.072 8.233-9.82 16.379-13.628 42.625-9.893 54.318 7.858 2.781 4.222 4.647 9.028 5.431 14.023 0 .001-72.194.001-72.21.001zm36.106-90.126c8.271 0 15 6.729 15 15 0 8.265-6.718 14.989-14.981 15h-.039c-8.262-.011-14.982-6.735-14.982-15 .001-8.271 6.73-15 15.002-15z"/></svg>